<svg xmlns="http://www.w3.org/2000/svg" viewBox="0 0 1200 1500" role="img" aria-labelledby="t d"><title id="t">Love Is Nature tote concept</title><desc id="d">Standalone ivory tote with earthy flowing bands and a small botanical sprig.</desc><rect width="1200" height="1500" fill="#f6efe4"/><circle cx="1020" cy="160" r="190" fill="#fffaf3" opacity=".5"/><path d="M365 470C365 260 455 205 600 205s235 55 235 265" fill="none" stroke="#dcc9aa" stroke-width="58" stroke-linecap="round"/><path d="M270 430Q600 390 930 430l-30 815q-300 55-600 0z" fill="#efe5d2" stroke="#b69a72" stroke-width="4"/><text x="600" y="590" text-anchor="middle" font-family="Georgia,serif" font-size="64" letter-spacing="4" fill="#244533">LOVE IS NATURE</text><g transform="translate(330 690)" fill="none" stroke-linecap="round"><path d="M0 0q190-160 420-30" stroke="#b76339" stroke-width="62"/><path d="M0 80q190-160 420-30" stroke="#d09a55" stroke-width="62"/><path d="M0 160q190-160 420-30" stroke="#52614a" stroke-width="62"/><path d="M0 240q190-160 420-30" stroke="#263d39" stroke-width="62"/></g><g fill="none" stroke="#31513f" stroke-width="8"><path d="M760 975q90-90 100-190M860 845q60-18 80-68M860 885q-50-12-75-62"/></g><g fill="#31513f"><ellipse cx="940" cy="777" rx="33" ry="16" transform="rotate(-36 940 777)"/><ellipse cx="785" cy="823" rx="33" ry="16" transform="rotate(34 785 823)"/></g></svg>