<svg xmlns="http://www.w3.org/2000/svg" viewBox="0 0 900 1100" role="img" aria-labelledby="t d"><title id="t">UNNAHANA arrival</title><desc id="d">An elegant fashion silhouette in Melbourne with floral textile motifs.</desc><defs><linearGradient id="bg" x1="0" y1="0" x2="1" y2="1"><stop stop-color="#f8efe3"/><stop offset="1" stop-color="#dcc7ac"/></linearGradient><pattern id="floral" width="70" height="70" patternUnits="userSpaceOnUse"><path d="M35 15c10 8 12 19 0 30-12-11-10-22 0-30Zm0 30c12 2 19 11 18 24-14 0-21-9-18-24Zm0 0c-12 2-19 11-18 24 14 0 21-9 18-24Z" fill="none" stroke="#a65f3d" stroke-width="3"/><circle cx="35" cy="45" r="4" fill="#17392d"/></pattern></defs><rect width="900" height="1100" fill="url(#bg)"/><circle cx="690" cy="220" r="170" fill="#eadbc7"/><path d="M0 830h900v270H0z" fill="#c7a67f"/><path d="M80 800h740M120 760h660" stroke="#17392d" stroke-width="7" opacity=".4"/><path d="M680 140v610M735 170v580M625 180v570" stroke="#17392d" stroke-width="8" opacity=".25"/><path d="M580 250c0-80 110-80 110 0v80H580Z" fill="#b98c5a" stroke="#17392d" stroke-width="7"/><path d="M545 330h180v420H545z" fill="#d7b78e" stroke="#17392d" stroke-width="7"/><path d="M585 390h100v90H585zM585 530h100v90H585z" fill="#f8efe3" stroke="#17392d" stroke-width="6"/><ellipse cx="390" cy="230" rx="58" ry="72" fill="#b87553"/><path d="M330 210c20-90 130-95 145-5-45-35-100-25-145 5Z" fill="#1d201d"/><path d="M340 300c30-30 80-30 105 0l55 100-18 115H305l-18-115Z" fill="#fff7ec" stroke="#17392d" stroke-width="8"/><path d="M315 390h170v250H315z" fill="url(#floral)" stroke="#17392d" stroke-width="8"/><path d="M335 640h62v280h-85l18-280Zm68 0h62l15 280h-85Z" fill="#f6eee4" stroke="#17392d" stroke-width="8"/><path d="M302 420 230 610M490 420l85 185" stroke="#b87553" stroke-width="26" stroke-linecap="round"/><path d="M520 600h120v180H520z" fill="#dbc29f" stroke="#7b5739" stroke-width="8"/><path d="M535 590c0-55 90-55 90 0" fill="none" stroke="#7b5739" stroke-width="10"/><path d="M550 635h60v100h-60z" fill="url(#floral)" opacity=".8"/><text x="70" y="90" fill="#17392d" font-family="Georgia,serif" font-size="64" letter-spacing="8">UNNAHANA</text><text x="74" y="136" fill="#9a5639" font-family="Arial,sans-serif" font-size="22" letter-spacing="9">THE ARRIVAL</text></svg>