<svg xmlns="http://www.w3.org/2000/svg" viewBox="0 0 1200 1200" role="img" aria-labelledby="title desc">
  <title id="title">Geyvak.com logo</title>
  <desc id="desc">Dark green Geyvak logo with leaf sprout, gold circuitry, roots, and Geyvak.com wordmark.</desc>
  <rect width="1200" height="1200" fill="#fffaf2"/>
  <g transform="translate(230 90) scale(6.15)">
    <circle cx="60" cy="60" r="56" fill="#fffaf2" stroke="#e7dccb" stroke-width="2"/>
    <path d="M75 18c15 17 10 33-2 45 13-7 28-5 39 5-20 2-33 10-41 25l-8 15H47c-27 0-45-19-45-45 0-25 19-45 46-45 19 0 34 10 41 25H71c-5-7-13-11-23-11-17 0-29 13-29 31s12 31 29 31h20l8-14c-7-10-12-26-1-62z" fill="#0f3b22"/>
    <path d="M20 55h23m-16-13h28m-18-13h24" stroke="#b08a36" stroke-width="4" stroke-linecap="round" fill="none"/>
    <circle cx="47" cy="55" r="4" fill="#b08a36"/>
    <circle cx="59" cy="42" r="4" fill="#b08a36"/>
    <circle cx="65" cy="29" r="4" fill="#b08a36"/>
    <path d="M58 101c-4 13-13 16-24 20m24-20c0 14 0 20-8 29m8-29c8 14 12 19 26 25" stroke="#b08a36" stroke-width="2.2" stroke-linecap="round" fill="none"/>
    <path d="M84 21c12 2 21 10 25 21-14 2-25-4-31-16m24 22c12-8 27-8 39-1-11 9-25 10-39 1" fill="#0f3b22"/>
  </g>
  <text x="600" y="935" text-anchor="middle" fill="#0f3b22" font-family="Georgia, 'Times New Roman', serif" font-size="128" letter-spacing="8">Geyvak.com</text>
  <g fill="none" stroke="#b08a36" stroke-width="3" stroke-linecap="round">
    <path d="M285 1035H515"/>
    <path d="M685 1035H915"/>
  </g>
  <circle cx="555" cy="1035" r="7" fill="#b08a36"/>
  <circle cx="645" cy="1035" r="7" fill="#b08a36"/>
  <path d="M600 1000c22 20 22 47 0 70-22-23-22-50 0-70z" fill="#0f3b22"/>
  <path d="M600 1018v58" stroke="#b08a36" stroke-width="2.5" stroke-linecap="round"/>
</svg>
