<svg xmlns="http://www.w3.org/2000/svg" viewBox="0 0 760 240" role="img" aria-labelledby="title desc">
  <title id="title">Geyvak.com logo</title>
  <desc id="desc">Modern Geyvak wordmark with a connected G monogram, representing ethical technology, creative service, and human care.</desc>
  <rect width="760" height="240" fill="none"/>

  <defs>
    <linearGradient id="geyvakGold" x1="0" y1="0" x2="1" y2="1">
      <stop offset="0" stop-color="#d9b45f"/>
      <stop offset="1" stop-color="#a97f2e"/>
    </linearGradient>
    <linearGradient id="geyvakGreen" x1="0" y1="0" x2="1" y2="1">
      <stop offset="0" stop-color="#123f2a"/>
      <stop offset="1" stop-color="#071b14"/>
    </linearGradient>
  </defs>

  <g transform="translate(48 36)">
    <circle cx="84" cy="84" r="78" fill="#fffaf2" stroke="#e6d8bd" stroke-width="5"/>
    <path d="M87 22c-35 0-63 28-63 63s28 63 63 63c27 0 50-17 59-40h-38c-6 7-13 10-23 10-18 0-32-15-32-33s14-33 33-33c12 0 22 6 28 15l24-20c-12-16-30-25-51-25Z" fill="url(#geyvakGreen)"/>
    <path d="M88 72h72v27h-36c-4 12-16 21-33 21-20 0-36-16-36-36s16-36 36-36c13 0 23 5 31 15" fill="none" stroke="#123f2a" stroke-width="15" stroke-linecap="round" stroke-linejoin="round"/>

    <path d="M124 45c19-20 40-24 63-18-3 21-15 38-40 46-11 3-21 2-30-3 0-9 2-17 7-25Z" fill="url(#geyvakGold)"/>
    <path d="M137 64c14-14 28-25 45-34" fill="none" stroke="#123f2a" stroke-width="5" stroke-linecap="round"/>

    <path d="M111 132c13 11 24 23 33 38" fill="none" stroke="#b08a36" stroke-width="6" stroke-linecap="round"/>
    <path d="M87 139c1 13 1 25-2 38" fill="none" stroke="#b08a36" stroke-width="6" stroke-linecap="round"/>
    <path d="M132 116c19 3 35 10 50 22" fill="none" stroke="#b08a36" stroke-width="6" stroke-linecap="round"/>
    <circle cx="146" cy="172" r="6" fill="#b08a36"/>
    <circle cx="85" cy="180" r="6" fill="#b08a36"/>
    <circle cx="185" cy="140" r="6" fill="#b08a36"/>
  </g>

  <g transform="translate(268 68)">
    <text x="0" y="58" font-family="Inter, Arial, Helvetica, sans-serif" font-size="64" font-weight="850" letter-spacing="4" fill="#102016">GEYVAK</text>
    <text x="318" y="58" font-family="Inter, Arial, Helvetica, sans-serif" font-size="31" font-weight="800" fill="#b08a36">.com</text>
    <path d="M2 83h392" stroke="#b08a36" stroke-width="5" stroke-linecap="round" opacity=".72"/>
    <text x="0" y="118" font-family="Inter, Arial, Helvetica, sans-serif" font-size="18" font-weight="750" letter-spacing=".4" fill="#314437">Technology with roots. Service with care.</text>
  </g>
</svg>
