<svg xmlns="http://www.w3.org/2000/svg" viewBox="0 0 640 220" role="img" aria-labelledby="title desc">
  <title id="title">Geyvak.com logo</title>
  <desc id="desc">Dark green G with leaf sprout and gold circuit roots, with Geyvak.com wordmark.</desc>
  <rect width="640" height="220" fill="none"/>
  <g transform="translate(50 25)">
    <path d="M104 12c-47 0-85 38-85 85s38 85 85 85c31 0 58-16 73-41h-44c-8 7-18 11-29 11-30 0-54-24-54-55s24-55 54-55c16 0 30 7 40 18l22-22c-16-17-38-26-62-26Z" fill="#0f3b22"/>
    <path d="M107 72h83v33h-50c-4 18-19 31-38 31-22 0-40-18-40-40s18-40 40-40c12 0 22 5 30 13l24-22c-14-15-33-23-54-23-40 0-72 32-72 72s32 72 72 72c42 0 72-31 72-76 0-7-1-14-2-20h-65Z" fill="#0f3b22" opacity=".92"/>
    <path d="M148 30c16-22 36-25 55-21-2 19-11 36-32 43-10 3-19 2-27-1 0-7 1-14 4-21Z" fill="#1d6b42"/>
    <path d="M159 45c17-18 30-27 43-35" fill="none" stroke="#0f3b22" stroke-width="5" stroke-linecap="round"/>
    <path d="M190 50c12-15 27-17 42-14-1 16-9 29-26 35-8 3-16 2-22-1 0-7 2-13 6-20Z" fill="#2b7d50"/>
    <path d="M197 65c12-12 22-20 34-27" fill="none" stroke="#0f3b22" stroke-width="4" stroke-linecap="round"/>
    <path d="M145 143c8 15 14 28 18 41M126 148c3 14 5 26 6 38M164 134c15 9 28 17 38 28M104 154c-4 12-9 22-16 32" fill="none" stroke="#b08a36" stroke-width="6" stroke-linecap="round"/>
    <circle cx="164" cy="184" r="5" fill="#b08a36"/><circle cx="132" cy="188" r="5" fill="#b08a36"/><circle cx="204" cy="163" r="5" fill="#b08a36"/><circle cx="88" cy="187" r="5" fill="#b08a36"/>
  </g>
  <g transform="translate(275 72)">
    <text x="0" y="56" font-family="Georgia, 'Times New Roman', serif" font-size="58" font-weight="700" fill="#0f3b22">Geyvak</text>
    <text x="212" y="56" font-family="Arial, sans-serif" font-size="32" font-weight="700" fill="#b08a36">.com</text>
    <path d="M5 78h300" stroke="#b08a36" stroke-width="4" stroke-linecap="round" opacity=".65"/>
    <text x="0" y="108" font-family="Arial, sans-serif" font-size="17" font-weight="700" fill="#314437" opacity=".9">Technology with roots. Service with care.</text>
  </g>
</svg>
